# xmcd
#
# Track frame offsets:
#	150
#	15419
#	34685
#	50446
#	67581
#	82042
#	98859
#	113453
#	130718
#	147321
#	165132
#	176662
#	191362
#	209463
#	222540
#	236306
#	249778
#	268495
#	282487
#	297929
#
# Disc length: 4206 seconds
#
# Revision: 1
# Processed by: cddbd v1.5.1PL2 Copyright (c) Steve Scherf et al.
# Submitted via: audiograbber 1.83.01
#
DISCID=16106c14
DTITLE=Various Artist - ERG NCT 139
DYEAR=2006
DGENRE=Country
TTITLE0=Kenny Rogers - I Can't Unlove You
TTITLE1=Keith Urban - Tonight I Wanna Cry
TTITLE2=Aaron Lines - Lights In My Hometown
TTITLE3=Lee Ann Womack - Twenty Years And Two Husbands Ago
TTITLE4=Trent Tomlinson - Drunker Than Me
TTITLE5=SheDaisy - God Bless The Canadian Housewife
TTITLE6=JoDeeMessina - Not Going Down
TTITLE7=Bon Jovi duet with Jennifer Nettles of Sugarland - Who Says You Can't G
TTITLE7=o Home
TTITLE8=Andy Griggs - I Never Had A Chance
TTITLE9=LeAnn Rimes - Something's Gotta Give
TTITLE10=George Canyon - One Good Friend
TTITLE11=Clint Black - Drinkin' Songs and Other Logic
TTITLE12=Tracy Lawrence - If I Don't Make it Back
TTITLE13=Jamie O'Neal - I Love My Life
TTITLE14=Carolina Rain - Let's Get It On
TTITLE15=Jeff Bates - No Shame
TTITLE16=Mark McGuinn - Bring 'Em Back
TTITLE17=Jason Aldean - Why
TTITLE18=Shawn King - Find Me
TTITLE19=Tyler Dean - Somebody Who Would Die For You
EXTD=
EXTT0=
EXTT1=
EXTT2=
EXTT3=
EXTT4=
EXTT5=
EXTT6=
EXTT7=
EXTT8=
EXTT9=
EXTT10=
EXTT11=
EXTT12=
EXTT13=
EXTT14=
EXTT15=
EXTT16=
EXTT17=
EXTT18=
EXTT19=
PLAYORDER=
